<svg xmlns="http://www.w3.org/2000/svg" width="150" height="100" viewBox="0 0 150 100"><rect width="100%" height="100%" fill="#DDDDDD"/><path fill="#999999" d="M30.905 50.145h1.81q.66 0 1.16-.17.49-.16.82-.47.33-.32.49-.76.16-.45.16-1 0-.52-.16-.94t-.48-.72q-.33-.3-.82-.45-.5-.16-1.17-.16h-1.81zm-2.42-6.54h4.23q1.3 0 2.26.3.95.31 1.57.86t.92 1.31q.3.77.3 1.67 0 .95-.31 1.74-.32.78-.95 1.35t-1.58.88q-.94.32-2.21.32h-1.81v4.58h-2.42zm10.81-.36h2.23v13.37h-2.23zm9.33 10.98v-1.55q-.96.04-1.62.16-.66.13-1.05.31-.4.19-.57.45-.17.25-.17.54 0 .59.34.84.35.25.91.25.68 0 1.18-.24.5-.25.98-.76m-4.7-4.85-.4-.71q1.6-1.46 3.84-1.46.81 0 1.45.27t1.08.74.67 1.13q.23.65.23 1.44v5.83h-1.01q-.32 0-.49-.09-.17-.1-.27-.39l-.19-.66q-.36.31-.69.55t-.69.4-.77.25q-.41.08-.91.08-.58 0-1.08-.15-.49-.16-.85-.48-.36-.31-.56-.78t-.2-1.09q0-.35.12-.7.12-.34.38-.66.27-.31.69-.59t1.04-.49q.62-.2 1.44-.33.82-.14 1.87-.16v-.54q0-.93-.4-1.37-.39-.45-1.14-.45-.54 0-.9.13-.35.12-.62.28t-.49.28q-.22.13-.49.13-.24 0-.4-.12t-.26-.29m16.16-.85-.59.81q-.1.12-.19.2-.1.07-.28.07-.17 0-.33-.1-.16-.11-.39-.24-.22-.13-.53-.23-.31-.11-.77-.11-.59 0-1.03.22-.44.21-.73.6-.29.4-.44.96-.14.56-.14 1.27 0 .74.15 1.32.16.57.46.97.3.39.72.59t.95.2.86-.13.56-.29q.22-.15.39-.28.16-.13.37-.13.27 0 .41.2l.64.81q-.37.43-.81.73-.43.29-.89.47-.46.17-.96.24-.49.08-.97.08-.86 0-1.61-.32-.76-.32-1.33-.94-.56-.61-.89-1.49-.33-.89-.33-2.03 0-1.01.29-1.88.3-.87.86-1.5.57-.64 1.41-1 .83-.36 1.92-.36 1.04 0 1.82.33.77.34 1.4.96m3.23 2.41h4.19q0-.43-.12-.81-.12-.39-.37-.67-.24-.29-.61-.46-.38-.17-.87-.17-.96 0-1.52.55-.55.55-.7 1.56m5.67 1.34h-5.72q.06.71.25 1.23.2.52.53.86.32.33.76.5.45.17.99.17t.93-.13.69-.28q.29-.15.51-.28.22-.12.43-.12.28 0 .41.2l.64.81q-.37.43-.83.73-.46.29-.96.47-.5.17-1.01.24-.52.08-1.01.08-.96 0-1.79-.32t-1.44-.95-.96-1.55-.35-2.14q0-.94.3-1.77.31-.84.88-1.45.57-.62 1.4-.98.82-.36 1.85-.36.88 0 1.62.28.73.28 1.26.82.54.53.84 1.31t.3 1.78q0 .5-.11.68-.11.17-.41.17m4.41-9.03v5.13q.54-.51 1.18-.82.65-.32 1.53-.32.75 0 1.34.26.58.25.97.72.39.46.6 1.11.2.64.2 1.41v5.88h-2.22v-5.88q0-.84-.39-1.31-.39-.46-1.18-.46-.58 0-1.08.26t-.95.71v6.68h-2.23v-13.37zm12.01 3.99q1.03 0 1.87.33.84.34 1.44.95t.92 1.49q.33.89.33 1.97 0 1.1-.33 1.98-.32.89-.92 1.51t-1.44.95q-.84.34-1.87.34t-1.88-.34q-.85-.33-1.44-.95-.6-.62-.93-1.51-.33-.88-.33-1.98 0-1.08.33-1.97.33-.88.93-1.49.59-.61 1.44-.95.85-.33 1.88-.33m0 7.8q1.15 0 1.71-.77.55-.77.55-2.27 0-1.49-.55-2.27-.56-.79-1.71-.79-1.17 0-1.73.79t-.56 2.27q0 1.49.56 2.27.56.77 1.73.77m6.28-11.79h2.23v13.37h-2.23zm10.25 10.63v-4.14q-.38-.46-.83-.64-.44-.19-.96-.19-.5 0-.91.19-.4.18-.69.57-.29.38-.44.97t-.15 1.39q0 .81.13 1.37t.37.92.6.51q.35.16.78.16.69 0 1.18-.29.48-.29.92-.82m0-10.63h2.22v13.37h-1.36q-.44 0-.56-.41l-.19-.89q-.56.64-1.28 1.04t-1.69.4q-.75 0-1.38-.32t-1.09-.91q-.45-.6-.7-1.48-.25-.89-.25-2.02 0-1.03.28-1.91t.8-1.53 1.25-1.01q.73-.37 1.64-.37.78 0 1.32.25.55.24.99.65zm6.17 7.69h4.19q0-.43-.12-.81-.12-.39-.36-.67-.25-.29-.62-.46t-.87-.17q-.96 0-1.51.55-.56.55-.71 1.56m5.67 1.34h-5.72q.06.71.26 1.23.19.52.52.86.32.33.77.5.44.17.98.17t.94-.13q.39-.13.68-.28t.51-.28q.22-.12.43-.12.28 0 .41.2l.64.81q-.37.43-.83.73-.45.29-.95.47-.5.17-1.02.24-.52.08-1 .08-.97 0-1.8-.32-.82-.32-1.44-.95-.61-.63-.96-1.55t-.35-2.14q0-.94.31-1.77.3-.84.87-1.45.58-.62 1.4-.98t1.86-.36q.87 0 1.61.28t1.27.82q.53.53.83 1.31t.3 1.78q0 .5-.11.68-.1.17-.41.17m4.15-4.34.13 1.05q.44-.83 1.03-1.3.59-.48 1.4-.48.64 0 1.03.28l-.14 1.67q-.05.16-.13.23-.09.07-.23.07t-.4-.05q-.27-.04-.52-.04-.37 0-.66.1-.29.11-.52.31-.23.21-.4.49-.18.29-.33.66v5.69h-2.22v-9.23h1.3q.34 0 .48.12.13.12.18.43"/></svg>